<svg xmlns="http://www.w3.org/2000/svg" width="22" height="20.099" viewBox="0 0 22 20.099"><defs><style>.a,.b{fill:#95989a;}.c,.d{stroke:none;}.d{fill:#fff;}</style></defs><g transform="translate(0 3.052)"><g transform="translate(7.427 3.419)"><g transform="translate(0 0)"><path class="a" d="M159.989,156.416a3.573,3.573,0,1,0,3.573,3.573A3.576,3.576,0,0,0,159.989,156.416Zm-.271,2.514a.82.82,0,0,0-.813.813h-1.183a2.02,2.02,0,0,1,2-2Z" transform="translate(-156.416 -156.416)"/></g></g><g transform="translate(0 0)"><g transform="translate(0 0)"><path class="a" d="M21.744,88.445c-1.2-1.471-5.469-6.269-10.744-6.269S1.453,86.974.256,88.445a1.149,1.149,0,0,0,0,1.447c1.2,1.471,5.469,6.269,10.744,6.269s9.547-4.8,10.744-6.269A1.149,1.149,0,0,0,21.744,88.445ZM11,94.232a5.064,5.064,0,1,1,5.128-5.064A5.1,5.1,0,0,1,11,94.232Z" transform="translate(0 -82.176)"/></g></g></g><g class="b" transform="translate(19.244 0) rotate(45)"><path class="c" d="M 0.7791935801506042 25.67365646362305 C 0.6306535601615906 25.67365646362305 0.4945435523986816 25.61746788024902 0.3959335684776306 25.51543807983398 C 0.2969335615634918 25.41300773620605 0.2452335506677628 25.27398681640625 0.2503435611724854 25.12397766113281 L 1.077253580093384 0.8737472891807556 C 1.088593602180481 0.5413472652435303 1.368253588676453 0.2616872787475586 1.700653553009033 0.2503472864627838 C 1.7075035572052 0.2501172721385956 1.714353561401367 0.2499972730875015 1.721133589744568 0.2499972730875015 C 1.869673609733582 0.2499972730875015 2.005783557891846 0.3061872720718384 2.104393482208252 0.4082172811031342 C 2.203393459320068 0.5106472969055176 2.255093574523926 0.6496672630310059 2.249983549118042 0.7996772527694702 L 1.423073530197144 25.04990768432617 C 1.411733508110046 25.3823070526123 1.132073521614075 25.66196823120117 0.7996735572814941 25.67330741882324 C 0.7928235530853271 25.67353820800781 0.7859735488891602 25.67365646362305 0.7791935801506042 25.67365646362305 Z"/><path class="d" d="M 1.721133470535278 0.4999980926513672 L 1.709173560142517 0.5002079010009766 C 1.508903503417969 0.5070381164550781 1.333943605422974 0.6819972991943359 1.327113509178162 0.8822669982910156 L 0.5002036094665527 25.13249778747559 C 0.4966335296630859 25.23715782165527 0.5392935276031494 25.30403709411621 0.575703501701355 25.34170722961426 C 0.6118335723876953 25.37909698486328 0.6764636039733887 25.42365646362305 0.7791935205459595 25.42365646362305 L 0.7911535501480103 25.42344665527344 C 0.9914236068725586 25.41661643981934 1.166383504867554 25.24165725708008 1.173213601112366 25.0413875579834 L 2.000123500823975 0.7911567687988281 C 2.003693580627441 0.6864967346191406 1.961033582687378 0.6196174621582031 1.924623489379883 0.5819473266601562 C 1.888493537902832 0.5445575714111328 1.823863506317139 0.4999980926513672 1.721133470535278 0.4999980926513672 M 1.72113561630249 1.9073486328125e-06 C 2.169029712677002 1.9073486328125e-06 2.515252828598022 0.3560638427734375 2.499833583831787 0.808197021484375 L 1.672923564910889 25.05842781066895 C 1.657173633575439 25.5202579498291 1.270023584365845 25.90740776062012 0.808193564414978 25.92315673828125 C 0.3463661670684814 25.93890762329102 -0.01525640487670898 25.5772876739502 0.0004935264587402344 25.11545753479004 L 0.8274035453796387 0.8652267456054688 C 0.8431535959243774 0.4033966064453125 1.230303525924683 0.01624679565429688 1.692133545875549 0.0004978179931640625 C 1.701830148696899 0.0001659393310546875 1.711529850959778 1.9073486328125e-06 1.72113561630249 1.9073486328125e-06 Z"/></g></svg>