<svg xmlns="http://www.w3.org/2000/svg" xmlns:xlink="http://www.w3.org/1999/xlink" width="143" height="143" viewBox="0 0 143 143"><defs><style>.a{fill:none;}.b{fill:#fff;}.c{fill:#ffca1e;}.d{fill:#e5ab07;}.e{fill:#f2bda2;}.f{fill:#fae0b2;}.g{fill:#f7cc7f;}.h{fill:#e5bd83;}.i{opacity:0.59;fill:url(#a);}.j{fill:url(#b);}.k{fill:#0f6a35;}.l{fill:#0f6032;}.m{fill:#0f7a32;}.n{fill:#0fbd4d;}.o{isolation:isolate;}.p{clip-path:url(#c);}.q{fill:url(#d);}.r{opacity:0.47;}.s{fill:#0fec60;}.t{opacity:0.2;fill:url(#e);}</style><radialGradient id="a" cx="0.5" cy="0.5" r="3.373" gradientTransform="translate(0.205 0.183) scale(0.08 0.635)" gradientUnits="objectBoundingBox"><stop offset="0" stop-color="#f9ec31"/><stop offset="0.337" stop-color="#f9ec31" stop-opacity="0.992"/><stop offset="0.474" stop-color="#f9ec31" stop-opacity="0.965"/><stop offset="0.575" stop-color="#f9ec31" stop-opacity="0.914"/><stop offset="0.658" stop-color="#f9ec31" stop-opacity="0.843"/><stop offset="0.73" stop-color="#f9ec31" stop-opacity="0.753"/><stop offset="0.795" stop-color="#f9ec31" stop-opacity="0.639"/><stop offset="0.854" stop-color="#f9ec31" stop-opacity="0.506"/><stop offset="0.907" stop-color="#f9ec31" stop-opacity="0.353"/><stop offset="0.952" stop-color="#f9ec31" stop-opacity="0.2"/></radialGradient><linearGradient id="b" x1="0.878" y1="0.046" x2="0.174" y2="0.89" gradientUnits="objectBoundingBox"><stop offset="0" stop-color="#0f973f"/><stop offset="0.989" stop-color="#0f6a35"/></linearGradient><clipPath id="c"><path class="a" d="M603.58,871.19l-14.834-6.575a5.184,5.184,0,0,1,.542-6.882l14.834,6.575A5.184,5.184,0,0,0,603.58,871.19Z" transform="translate(-587.681 -857.733)"/></clipPath><linearGradient id="d" x1="0.74" y1="-0.055" x2="0.226" y2="0.836" gradientUnits="objectBoundingBox"><stop offset="0.16" stop-color="#0fbd4d"/><stop offset="0.754" stop-color="#0fa242"/></linearGradient><linearGradient id="e" x1="0.5" y1="1" x2="0.5" gradientUnits="objectBoundingBox"><stop offset="0.147" stop-color="#f9ec31" stop-opacity="0.2"/><stop offset="0.237" stop-color="#f9ec31" stop-opacity="0.247"/><stop offset="0.398" stop-color="#f9ec31" stop-opacity="0.369"/><stop offset="0.611" stop-color="#f9ec31" stop-opacity="0.569"/><stop offset="0.864" stop-color="#f9ec31" stop-opacity="0.843"/><stop offset="1" stop-color="#f9ec31"/></linearGradient></defs><g transform="translate(0)"><rect class="b" width="143" height="143"/><g transform="translate(0 2.016)"><g transform="translate(15.059 107.915)"><g transform="translate(69.617)"><path class="c" d="M1131.349,1076.118v-21.725h-28.34v21.725" transform="translate(-1101.309 -1048.675)"/><rect class="b" width="13.603" height="9.148" transform="translate(3.996 12.578)"/><rect class="d" width="11.336" height="6.861" transform="translate(5.129 13.721)"/><g transform="translate(4.534)"><path class="b" d="M1125.588,1012.557h3.8l-1.1,4.574h-4.534Z" transform="translate(-1123.748 -1012.557)"/></g><g transform="translate(13.603)"><path class="b" d="M1190.476,1012.557h3.8l.368,4.574h-4.534Z" transform="translate(-1190.108 -1012.557)"/></g><g transform="translate(21.568)"><path class="b" d="M1252.187,1012.557l1.84,4.574h-4.534l-1.1-4.574Z" transform="translate(-1248.389 -1012.557)"/></g><g transform="translate(0)"><path class="c" d="M1093.191,1012.557h3.751l-1.84,4.574h-4.534Z" transform="translate(-1090.567 -1012.557)"/></g><g transform="translate(25.366)"><path class="c" d="M1279.933,1012.557l2.624,4.574h-4.534l-1.84-4.574Z" transform="translate(-1276.182 -1012.557)"/></g><g transform="translate(9.069)"><path class="c" d="M1158.032,1012.557h3.8l-.368,4.574h-4.534Z" transform="translate(-1156.928 -1012.557)"/></g><g transform="translate(17.77)"><path class="c" d="M1224.393,1012.557l1.1,4.574h-4.534l-.368-4.574Z" transform="translate(-1220.595 -1012.557)"/></g><g transform="translate(22.672 4.574)"><path class="b" d="M1258.735,1051.743h0a2.277,2.277,0,0,1-2.268-2.287v-3.43H1261v3.43A2.277,2.277,0,0,1,1258.735,1051.743Z" transform="translate(-1256.468 -1046.026)"/></g><g transform="translate(13.603 4.574)"><path class="b" d="M1192.375,1051.743h0a2.277,2.277,0,0,1-2.267-2.287v-3.43h4.534v3.43A2.277,2.277,0,0,1,1192.375,1051.743Z" transform="translate(-1190.108 -1046.026)"/></g><g transform="translate(4.534 4.574)"><path class="b" d="M1123.747,1049.456v-3.43h4.534v3.43a2.277,2.277,0,0,1-2.267,2.287h0A2.277,2.277,0,0,1,1123.747,1049.456Z" transform="translate(-1123.747 -1046.026)"/></g><g transform="translate(27.206 4.574)"><path class="d" d="M1291.916,1051.743h0a2.277,2.277,0,0,1-2.267-2.287v-3.43h4.534v3.43A2.277,2.277,0,0,1,1291.916,1051.743Z" transform="translate(-1289.649 -1046.026)"/></g><g transform="translate(0 4.574)"><path class="d" d="M1090.567,1049.456v-3.43h4.534v3.43a2.277,2.277,0,0,1-2.267,2.287h0A2.277,2.277,0,0,1,1090.567,1049.456Z" transform="translate(-1090.567 -1046.026)"/></g><g transform="translate(18.138 4.574)"><path class="d" d="M1225.555,1051.743h0a2.277,2.277,0,0,1-2.267-2.287v-3.43h4.534v3.43A2.277,2.277,0,0,1,1225.555,1051.743Z" transform="translate(-1223.288 -1046.026)"/></g><g transform="translate(9.069 4.574)"><path class="d" d="M1156.927,1049.456v-3.43h4.534v3.43a2.277,2.277,0,0,1-2.267,2.287h0A2.277,2.277,0,0,1,1156.927,1049.456Z" transform="translate(-1156.927 -1046.026)"/></g><g transform="translate(21 12.578)"><rect class="b" width="6.802" height="13.721"/></g><g transform="translate(22.133 13.721)"><rect class="d" width="4.534" height="11.434"/></g><rect class="d" width="31.174" height="2.859" transform="translate(0.283 24.584)"/><g transform="translate(21 24.584)"><rect class="c" width="6.802" height="2.859"/></g></g><g transform="translate(0 3.65)"><g transform="translate(10.165 9.459)"><path class="e" d="M655.536,1108.5l0-.011C655.549,1108.486,655.536,1108.5,655.536,1108.5Z" transform="translate(-655.532 -1108.485)"/></g><path class="f" d="M714.226,1057.895c3.675-1.4,4.807-7.277,4.807-7.277.457.842.318,4.016.318,4.016.7-.055,2-1.231,2-1.231-1.163,3.523-5.481,5.277-5.481,5.277Z" transform="translate(-696.04 -1049.067)"/><path class="d" d="M693.482,1048.018s-3.122-3.986-2.749-7.772a7.865,7.865,0,0,0,1.257,2.316s1.126-2.845,1.855-3.293c0,0-1.325,5.813,1.319,9.316Z" transform="translate(-675.731 -1039.269)"/><g transform="translate(0 0.331)"><path class="g" d="M593.928,1108.9l-.121,2.885a45.046,45.046,0,0,1,14.726,2.574l.092-.418Z" transform="translate(-592.077 -1099.719)"/><path class="f" d="M584.7,1041.692a6.693,6.693,0,0,0-2.91,8.772l1.206.413,14.7,5.042,15.93,5.464a3.144,3.144,0,0,1-1.948-3.59,3.009,3.009,0,0,1,3.265-2.524C611.762,1054.522,596.83,1050.671,584.7,1041.692Z" transform="translate(-581.15 -1041.692)"/><path class="h" d="M808.566,1161.57l-4.432-2.063a3.144,3.144,0,0,0,1.948,3.59A1.91,1.91,0,0,0,808.566,1161.57Z" transform="translate(-773.605 -1143.406)"/><path class="g" d="M717.585,1147.022l-15.93-5.464-.092.418a47.014,47.014,0,0,1,14.937,8.408,4.664,4.664,0,0,0,6.063-3.727,4.914,4.914,0,0,0-3.045-5.611l-.014,0c-.054-.011-.251-.054-.576-.13a.112.112,0,0,0-.026-.007,3.009,3.009,0,0,0-3.265,2.524l4.432,2.063A1.91,1.91,0,0,1,717.585,1147.022Z" transform="translate(-685.107 -1127.331)"/></g><path class="d" d="M701.651,1106.5a8.46,8.46,0,0,1,.367-6.908l3.144,1.342a8.242,8.242,0,0,0-.363,6.83Z" transform="translate(-684.702 -1091.349)"/></g></g><g transform="translate(15.952 42.331)"><ellipse class="i" cx="50.461" cy="4.029" rx="50.461" ry="4.029" transform="translate(1.52 88.472)"/><path class="j" d="M932.343,540.677l.069-.067q.09-.087.182-.168l.064-.056q.137-.117.28-.222l.059-.042q.129-.093.262-.176l.049-.032c.046-.028.092-.054.138-.08l.088-.05c.053-.028.106-.055.159-.081l.071-.035q.116-.055.233-.1l.042-.016c.065-.026.129-.05.195-.073l.034-.011c.092-.031.184-.059.277-.083l.078-.02c.1-.025.2-.048.308-.066l.018,0c.1-.017.2-.029.294-.039l.079-.007c.1-.009.207-.015.31-.016L920.8,532.655c-.1,0-.207.007-.31.016l-.079.007c-.1.01-.2.022-.294.039l-.018,0c-.1.018-.205.041-.308.066l-.078.021c-.093.025-.186.052-.278.084l-.025.007-.008,0c-.067.023-.133.048-.2.075l-.038.014q-.118.048-.234.1l-.069.035c-.054.026-.108.053-.161.082-.03.016-.059.033-.088.05-.046.026-.092.052-.138.08l-.017.01-.032.022q-.133.083-.262.176l-.06.043q-.142.1-.279.222l-.021.017-.043.04q-.092.081-.182.167l-.069.067c-.078.078-.155.158-.229.242h0l-47.326,53.49c-.049.055-.1.106-.151.155l-.041.038c-.041.037-.083.072-.126.105l-.044.035c-.056.041-.112.08-.17.115s-.1.058-.156.084l-.047.025a2.133,2.133,0,0,1-.208.085c-.061.021-.123.038-.184.053l-.053.011q-.07.015-.14.025l-.055.007c-.062.007-.125.012-.187.012a1.879,1.879,0,0,1-.216-.012l-.067-.01c-.05-.007-.1-.016-.148-.028-.033-.008-.066-.016-.1-.026l-.05-.015c-.054-.018-.108-.038-.16-.061l14.834,6.575c.053.023.106.043.161.061l.05.015.063.019.037.007c.049.012.1.02.148.028l.067.01a1.693,1.693,0,0,0,.4,0l.055-.007q.07-.01.14-.025l.053-.011c.061-.015.121-.031.181-.052h0a2.09,2.09,0,0,0,.208-.085c.016-.007.031-.017.047-.025.052-.026.1-.053.156-.084l.008,0c.055-.034.109-.071.163-.111l.044-.035c.028-.022.057-.043.084-.067l.042-.039.041-.037c.052-.049.1-.1.151-.155l47.326-53.49-7.417-3.287,7.417,3.287C932.189,540.835,932.265,540.755,932.343,540.677Z" transform="translate(-829.39 -532.655)"/><path class="k" d="M694.773,774.358l.055-.039c.1-.071.2-.139.3-.2l.031-.018q.093-.056.187-.108l.077-.04c.048-.025.1-.05.145-.074l.089-.041.138-.061.093-.037.137-.052.083-.029c.1-.034.2-.064.3-.091l.048-.011q.139-.035.279-.06l.052-.01c.1-.017.2-.031.3-.04l.066-.006c.1-.009.208-.015.311-.016.082,0,.163,0,.245.005l.076.005c.057,0,.113.008.169.015l.086.01c.055.007.11.016.165.025l.078.014q.1.02.208.046l.029.007c.093.024.184.052.275.083l.066.023c.091.032.181.067.27.106L684.3,767.189c-.089-.039-.179-.074-.27-.106l-.066-.023c-.091-.031-.182-.059-.275-.083h0l-.026-.006q-.1-.026-.208-.046l-.078-.014c-.055-.009-.11-.018-.165-.025l-.086-.01q-.084-.009-.169-.015l-.076-.005c-.081,0-.163-.006-.245-.005-.1,0-.207.007-.311.016l-.066.006q-.152.015-.3.04l-.052.01q-.14.026-.279.06l-.048.011c-.1.026-.2.057-.3.09l-.03.009-.052.02-.137.051-.093.038c-.046.019-.092.04-.138.061l-.089.041c-.049.023-.1.048-.145.074l-.077.04c-.063.034-.125.071-.187.108l-.029.017h0c-.1.063-.2.13-.3.2l-.055.039q-.142.1-.28.222l-.022.017-.031.028c-.093.081-.185.165-.273.254l14.834,6.575c.089-.089.181-.173.274-.254l.052-.046Q694.63,774.463,694.773,774.358Z" transform="translate(-666.808 -734.844)"/><path class="l" d="M637.24,946.161l-26.928-31.493-14.834-6.575,26.928,31.493a11.785,11.785,0,0,0,4.186,3.126l14.834,6.575A11.787,11.787,0,0,1,637.24,946.161Z" transform="translate(-594.412 -856.786)"/><g transform="translate(1.607 33.461)"><path class="m" d="M614.276,795.046l-14.834-6.575,10.918-10.963,14.834,6.575Z" transform="translate(-599.442 -777.508)"/></g><g transform="translate(14.834 6.575)"><path class="n" d="M787.637,580.766a3.937,3.937,0,0,1,2.876,1.181l9.9,10.034a5.111,5.111,0,0,1-.126,6.863l-56.491,63.848a14.427,14.427,0,0,1-10.005,5c-.144.006-.288.01-.43.012a11.79,11.79,0,0,1-9.134-4.139l-26.928-31.493a5.184,5.184,0,0,1,.542-6.882l10.918-10.964a4.748,4.748,0,0,1,3.3-1.456,3.944,3.944,0,0,1,3.075,1.394l18.736,21.911a1.751,1.751,0,0,0,1.366.62,2.128,2.128,0,0,0,1.563-.751l47.326-53.49A4.8,4.8,0,0,1,787.637,580.766Z" transform="translate(-696.229 -580.766)"/></g><g class="o" transform="translate(0 44.425)"><g class="p"><path class="k" d="M603.4,865.2a5.508,5.508,0,0,1,.475-.629q.117-.134.244-.262l-14.834-6.575q-.127.127-.244.262a5.534,5.534,0,0,0-.908,1.438,4.964,4.964,0,0,0,.611,5.182l14.834,6.575a4.964,4.964,0,0,1-.611-5.182A5.557,5.557,0,0,1,603.4,865.2Z" transform="translate(-587.68 -857.733)"/></g></g><g transform="translate(14.834 6.575)"><path class="q" d="M787.637,580.766a3.937,3.937,0,0,1,2.876,1.181l9.9,10.034a5.111,5.111,0,0,1-.126,6.863l-56.491,63.848a14.427,14.427,0,0,1-10.005,5c-.144.006-.288.01-.43.012a11.79,11.79,0,0,1-9.134-4.139l-26.928-31.493a5.184,5.184,0,0,1,.542-6.882l10.918-10.964a4.748,4.748,0,0,1,3.3-1.456,3.944,3.944,0,0,1,3.075,1.394l18.736,21.911a1.751,1.751,0,0,0,1.366.62,2.128,2.128,0,0,0,1.563-.751l47.326-53.49A4.8,4.8,0,0,1,787.637,580.766Z" transform="translate(-696.229 -580.766)"/></g><g class="r" transform="translate(21.103 6.575)"><path class="s" d="M772.963,650.056c.142,0,.286-.006.43-.012a14.427,14.427,0,0,0,10.005-5l51.52-58.23-4.8-4.866a3.937,3.937,0,0,0-2.876-1.181,4.8,4.8,0,0,0-3.518,1.689L776.4,635.945a2.128,2.128,0,0,1-1.562.751,1.752,1.752,0,0,1-1.366-.62l-18.736-21.911a3.944,3.944,0,0,0-3.075-1.394,4.748,4.748,0,0,0-3.3,1.456l-6.256,6.282,21.725,25.407A11.791,11.791,0,0,0,772.963,650.056Z" transform="translate(-742.104 -580.766)"/></g></g><g transform="translate(1.029 15.474)"><g transform="translate(23.041 72.364)"><path class="d" d="M648.763,869.174a1.766,1.766,0,1,1,1.676-1.764A1.723,1.723,0,0,1,648.763,869.174Zm0-2.779a1.016,1.016,0,1,0,.965,1.015A.992.992,0,0,0,648.763,866.4Z" transform="translate(-647.087 -865.647)"/></g><g transform="translate(64.135 29.356)"><path class="d" d="M949.462,554.47a1.766,1.766,0,1,1,1.676-1.764A1.723,1.723,0,0,1,949.462,554.47Zm0-2.779a1.017,1.017,0,1,0,.965,1.015A.992.992,0,0,0,949.462,551.692Z" transform="translate(-947.786 -550.943)"/></g><g transform="translate(50.752 13.226)"><path class="d" d="M851.981,437.372a2.234,2.234,0,1,1,2.12-2.231A2.18,2.18,0,0,1,851.981,437.372Zm0-3.714a1.485,1.485,0,1,0,1.409,1.483A1.449,1.449,0,0,0,851.981,433.658Z" transform="translate(-849.861 -432.909)"/></g><g transform="translate(117.878 63.753)"><path class="d" d="M1343.172,807.1a2.234,2.234,0,1,1,2.12-2.231A2.18,2.18,0,0,1,1343.172,807.1Zm0-3.714a1.485,1.485,0,1,0,1.409,1.483A1.449,1.449,0,0,0,1343.172,803.388Z" transform="translate(-1341.052 -802.64)"/></g><g transform="translate(0 69.668)"><g transform="translate(1.548 0.117)"><path class="d" d="M494.122,862.218c-.072,0-.144,0-.216-.008a4.025,4.025,0,0,1-3.138-2.578,11.888,11.888,0,0,1,.734-10.767,3.949,3.949,0,0,1,3.456-2.08,4.024,4.024,0,0,1,3.138,2.578,11.025,11.025,0,0,1,.925,5.481h0a10.916,10.916,0,0,1-1.658,5.286A4.063,4.063,0,0,1,494.122,862.218Zm.622-14.693a3.4,3.4,0,0,0-2.662,1.773,10.136,10.136,0,0,0-1.529,4.906,10.239,10.239,0,0,0,.848,5.086,3.354,3.354,0,0,0,2.556,2.173,3.292,3.292,0,0,0,2.825-1.767,10.137,10.137,0,0,0,1.529-4.906,10.239,10.239,0,0,0-.848-5.086,3.354,3.354,0,0,0-2.556-2.173C494.852,847.526,494.8,847.524,494.744,847.524Z" transform="translate(-489.812 -846.776)"/></g><path class="d" d="M484.126,861.471l-1.548-.117a4.024,4.024,0,0,1-3.138-2.578,11.888,11.888,0,0,1,.734-10.767,3.95,3.95,0,0,1,3.456-2.08l1.548.117-.051.747-1.548-.117a3.291,3.291,0,0,0-2.825,1.767,11.116,11.116,0,0,0-.681,9.992,3.354,3.354,0,0,0,2.556,2.173l1.548.117Z" transform="translate(-478.484 -845.921)"/><g transform="translate(5.711 4.256)"><path class="d" d="M520.982,883.589l-.709-.032.733-6.494.709.032Z" transform="translate(-520.272 -877.062)"/></g></g><g transform="translate(13.589 41.924)"><g transform="translate(1.432)"><path class="d" d="M596.857,657.258c-.064.033-.129.063-.2.091a4.025,4.025,0,0,1-3.967-.87,11.025,11.025,0,0,1-3.315-4.462,10.914,10.914,0,0,1-.925-5.462,3.95,3.95,0,0,1,2.133-3.424,4.024,4.024,0,0,1,3.967.87,11.025,11.025,0,0,1,3.315,4.462h0a10.917,10.917,0,0,1,.925,5.462A4.063,4.063,0,0,1,596.857,657.258Zm-6.124-13.37a3.4,3.4,0,0,0-1.566,2.789,11.116,11.116,0,0,0,3.935,9.21,3.354,3.354,0,0,0,3.265.774,3.292,3.292,0,0,0,1.713-2.858,11.116,11.116,0,0,0-3.935-9.21,3.354,3.354,0,0,0-3.265-.774Q590.805,643.85,590.733,643.887Z" transform="translate(-588.396 -642.905)"/></g><g transform="translate(0 0.226)"><path class="d" d="M587.614,658.774l-1.432.6a4.024,4.024,0,0,1-3.967-.87,11.888,11.888,0,0,1-4.24-9.924,3.951,3.951,0,0,1,2.133-3.424l1.432-.6.294.688-1.432.6a3.292,3.292,0,0,0-1.713,2.858,11.116,11.116,0,0,0,3.935,9.21,3.354,3.354,0,0,0,3.265.774l1.432-.6Z" transform="translate(-577.917 -644.556)"/></g><g transform="translate(5.278 3.725)"><path class="d" d="M619.484,676.278l-.647.294-2.3-6.118.647-.294Z" transform="translate(-616.539 -670.161)"/></g></g><g transform="translate(125.277 46.732)"><g transform="translate(0.941)"><path class="d" d="M1409.349,689.1a4.61,4.61,0,0,1-1.3-.2,8.336,8.336,0,0,1-3.72-2.517,8.955,8.955,0,0,1-2.138-4.075,3.68,3.68,0,0,1,.763-3.448,3.239,3.239,0,0,1,3.319-.572A8.336,8.336,0,0,1,1410,680.8a8.956,8.956,0,0,1,2.138,4.075,3.679,3.679,0,0,1-.763,3.448A2.8,2.8,0,0,1,1409.349,689.1Zm-4.369-10.264a2.125,2.125,0,0,0-1.538.57,2.952,2.952,0,0,0-.553,2.748,8.189,8.189,0,0,0,1.961,3.717,7.625,7.625,0,0,0,3.393,2.307,2.592,2.592,0,0,0,2.641-.4,2.951,2.951,0,0,0,.553-2.748,8.189,8.189,0,0,0-1.961-3.717h0a7.624,7.624,0,0,0-3.393-2.307A3.921,3.921,0,0,0,1404.98,678.834Z" transform="translate(-1402.08 -678.085)"/></g><g transform="translate(0 0.773)"><path class="d" d="M1402.465,694.906a4.6,4.6,0,0,1-1.3-.2,8.337,8.337,0,0,1-3.721-2.517,8.959,8.959,0,0,1-2.138-4.075,3.68,3.68,0,0,1,.763-3.448l.941-.926.486.547-.941.926a2.951,2.951,0,0,0-.553,2.748,8.189,8.189,0,0,0,1.961,3.717,7.623,7.623,0,0,0,3.393,2.307,2.591,2.591,0,0,0,2.641-.4l.941-.926.486.547-.941.926A2.8,2.8,0,0,1,1402.465,694.906Z" transform="translate(-1395.196 -683.74)"/></g><g transform="translate(4.721 3.372)"><path class="d" d="M1432.953,706.67l-3.211-3.623.287-.283,3.211,3.623Z" transform="translate(-1429.742 -702.763)"/></g></g><g transform="translate(103.406)"><g transform="translate(1.86)"><path class="d" d="M1260.23,355.126a5.438,5.438,0,0,1-4.878-.9,14.575,14.575,0,0,1-4.825-5.629,14.8,14.8,0,0,1-1.754-7.242c.112-2.312.985-4.011,2.457-4.785s3.345-.517,5.273.724a14.575,14.575,0,0,1,4.825,5.629,14.8,14.8,0,0,1,1.754,7.242c-.112,2.312-.985,4.011-2.458,4.785A3.7,3.7,0,0,1,1260.23,355.126Zm-8.339-18.037a3.043,3.043,0,0,0-.32.145c-1.244.654-1.984,2.138-2.083,4.181a14.007,14.007,0,0,0,1.669,6.848,13.8,13.8,0,0,0,4.556,5.331c1.7,1.1,3.327,1.34,4.571.686s1.984-2.139,2.083-4.181a14.012,14.012,0,0,0-1.669-6.848,13.8,13.8,0,0,0-4.557-5.331A4.777,4.777,0,0,0,1251.891,337.088Z" transform="translate(-1248.761 -336.13)"/></g><g transform="translate(0 0.438)"><path class="d" d="M1246.623,358.87a5.438,5.438,0,0,1-4.878-.9,14.575,14.575,0,0,1-4.825-5.629,14.8,14.8,0,0,1-1.754-7.242c.112-2.312.985-4.011,2.457-4.785l1.859-.977.341.666-1.859.977c-1.244.654-1.984,2.138-2.083,4.181a14,14,0,0,0,1.669,6.848,13.8,13.8,0,0,0,4.557,5.331c1.7,1.1,3.327,1.34,4.571.686l1.86-.977.34.666-1.86.977A3.694,3.694,0,0,1,1246.623,358.87Z" transform="translate(-1235.154 -339.335)"/></g><g transform="translate(6.862 4.902)"><path class="d" d="M1290.32,380.931l-4.955-8.624L1286,372l4.955,8.624Z" transform="translate(-1285.365 -372.001)"/></g></g><g transform="translate(24.297 3.774)"><path class="d" d="M659.536,386.246a4.458,4.458,0,0,1-.5-.243c-1.723-.972-2.7-3.028-2.753-5.789a17.752,17.752,0,0,1,2.357-8.62,17.464,17.464,0,0,1,5.978-6.577c2.341-1.411,4.579-1.652,6.3-.68s2.7,3.028,2.753,5.789a17.753,17.753,0,0,1-2.357,8.62,17.463,17.463,0,0,1-5.978,6.577C663.217,386.6,661.181,386.919,659.536,386.246Zm-.278-14.3a16.964,16.964,0,0,0-2.26,8.229c.048,2.492.9,4.33,2.4,5.175s3.486.609,5.6-.663a16.691,16.691,0,0,0,5.7-6.287,16.965,16.965,0,0,0,2.26-8.229c-.048-2.492-.9-4.33-2.4-5.175s-3.486-.61-5.6.663a16.691,16.691,0,0,0-5.7,6.287Z" transform="translate(-656.28 -363.749)"/><g transform="translate(2.756 0.587)"><path class="d" d="M679.149,391.2a4.437,4.437,0,0,1-.5-.243l-2.2-1.244.36-.656,2.2,1.244c1.5.845,3.486.609,5.6-.663a16.692,16.692,0,0,0,5.7-6.287,16.966,16.966,0,0,0,2.26-8.229c-.048-2.492-.9-4.33-2.4-5.175l-2.2-1.244.36-.656,2.2,1.244c1.723.972,2.7,3.028,2.753,5.789a17.753,17.753,0,0,1-2.357,8.62,17.464,17.464,0,0,1-5.978,6.577C682.83,391.551,680.794,391.87,679.149,391.2Z" transform="translate(-676.444 -368.043)"/></g><g transform="translate(5.719 6.283)"><path class="d" d="M698.771,418.033l-.645-.24,4.412-8.068.645.24Z" transform="translate(-698.126 -409.726)"/></g></g><g transform="translate(119.526 74.447)"><g transform="translate(0.152)"><path class="d" d="M1361.068,889.151a9.453,9.453,0,0,1-1.17-.074,8.136,8.136,0,0,1-4.13-1.667,3.613,3.613,0,0,1-1.527-3.154,3.507,3.507,0,0,1,2.188-2.688,7.993,7.993,0,0,1,4.386-.6h0a8.136,8.136,0,0,1,4.129,1.666,3.613,3.613,0,0,1,1.527,3.154,3.508,3.508,0,0,1-2.188,2.689A7.494,7.494,0,0,1,1361.068,889.151Zm-1.425-7.507a6.8,6.8,0,0,0-2.918.605,2.8,2.8,0,0,0-1.777,2.1,2.889,2.889,0,0,0,1.259,2.476,7.44,7.44,0,0,0,3.775,1.512,7.307,7.307,0,0,0,4.007-.537,2.8,2.8,0,0,0,1.777-2.1,2.888,2.888,0,0,0-1.259-2.476,7.439,7.439,0,0,0-3.775-1.512h0A8.737,8.737,0,0,0,1359.643,881.644Z" transform="translate(-1354.224 -880.896)"/></g><g transform="translate(0 3.361)"><path class="d" d="M1359.953,911.73a9.39,9.39,0,0,1-1.169-.074,8.137,8.137,0,0,1-4.13-1.666,3.612,3.612,0,0,1-1.527-3.154l.152-1.346.706.089-.152,1.346a2.888,2.888,0,0,0,1.259,2.476,7.439,7.439,0,0,0,3.775,1.512,7.305,7.305,0,0,0,4.007-.537,2.8,2.8,0,0,0,1.777-2.1l.152-1.346.706.089-.152,1.346a3.506,3.506,0,0,1-2.188,2.689A7.5,7.5,0,0,1,1359.953,911.73Z" transform="translate(-1353.109 -905.489)"/></g><g transform="translate(3.488 3)"><path class="d" d="M1384.507,904.648l-5.872-1.059.058-.743,5.872,1.059Z" transform="translate(-1378.635 -902.846)"/></g></g><g transform="translate(118.412 24.727)"><path class="d" d="M1346.628,520.587a1.76,1.76,0,1,1,1.67-1.758A1.718,1.718,0,0,1,1346.628,520.587Zm0-2.767a1.011,1.011,0,1,0,.959,1.009A.986.986,0,0,0,1346.628,517.82Z" transform="translate(-1344.958 -517.071)"/></g><g transform="translate(34.256 49.558)"><path class="d" d="M730.818,702.286a1.59,1.59,0,0,1-.673-.15,1.8,1.8,0,0,1-.852-2.319,1.7,1.7,0,0,1,.925-.928,1.582,1.582,0,0,1,1.278.032,1.711,1.711,0,0,1,.882.974,1.832,1.832,0,0,1-.03,1.345A1.671,1.671,0,0,1,730.818,702.286Zm0-2.768a.917.917,0,0,0-.346.068.976.976,0,0,0-.531.533,1.051,1.051,0,0,0-.017.772.982.982,0,0,0,.507.559.942.942,0,0,0,1.265-.515,1.052,1.052,0,0,0,.017-.772.983.983,0,0,0-.506-.559A.918.918,0,0,0,730.821,699.518Z" transform="translate(-729.151 -698.769)"/></g><g transform="translate(82.191 7.85)"><path class="d" d="M1099.91,439.731a2.018,2.018,0,0,1-.854-.191,2.274,2.274,0,0,1-1.078-2.933,2.075,2.075,0,0,1,2.787-1.134,2.164,2.164,0,0,1,1.116,1.232,2.316,2.316,0,0,1-.038,1.7h0a2.149,2.149,0,0,1-1.17,1.174A2.02,2.02,0,0,1,1099.91,439.731Zm0-3.7a1.4,1.4,0,0,0-1.284.878,1.508,1.508,0,0,0,.715,1.946,1.328,1.328,0,0,0,1.072.027,1.425,1.425,0,0,0,.776-.779h0a1.536,1.536,0,0,0,.026-1.129,1.436,1.436,0,0,0-.74-.817A1.335,1.335,0,0,0,1099.913,436.031Zm-17.888-38.013a2.018,2.018,0,0,1-.854-.191,2.274,2.274,0,0,1-1.077-2.933,2.075,2.075,0,0,1,2.787-1.134,2.165,2.165,0,0,1,1.116,1.232,2.317,2.317,0,0,1-.038,1.7h0a2.15,2.15,0,0,1-1.17,1.174A2.018,2.018,0,0,1,1082.024,398.018Zm0-3.7a1.4,1.4,0,0,0-1.283.878,1.508,1.508,0,0,0,.714,1.945,1.328,1.328,0,0,0,1.072.027,1.426,1.426,0,0,0,.776-.779h0a1.536,1.536,0,0,0,.026-1.129,1.436,1.436,0,0,0-.74-.817A1.335,1.335,0,0,0,1082.027,394.318Z" transform="translate(-1079.913 -393.57)"/></g><g transform="translate(132.4 93.002)"><path class="d" d="M1449.129,1020.49a1.816,1.816,0,0,1-1.668-1.153,1.951,1.951,0,0,1,.947-2.509,1.719,1.719,0,0,1,1.388-.021,1.849,1.849,0,0,1,1,1.018h0a1.988,1.988,0,0,1,.02,1.461,1.856,1.856,0,0,1-.967,1.048A1.733,1.733,0,0,1,1449.129,1020.49Zm0-3.071a1.054,1.054,0,0,0-.437.1,1.186,1.186,0,0,0-.576,1.526,1.084,1.084,0,0,0,1.449.606,1.128,1.128,0,0,0,.588-.637,1.209,1.209,0,0,0-.012-.888h0a1.124,1.124,0,0,0-.605-.619A1.052,1.052,0,0,0,1449.126,1017.419Z" transform="translate(-1447.313 -1016.671)"/></g><g transform="translate(4.04 93.002)"><path class="d" d="M511.086,1023.063a3.039,3.039,0,0,1-2.792-1.93,3.265,3.265,0,0,1,1.585-4.2,2.877,2.877,0,0,1,2.323-.036,3.093,3.093,0,0,1,1.667,1.7h0a3.329,3.329,0,0,1,.034,2.445,3.107,3.107,0,0,1-1.619,1.754A2.894,2.894,0,0,1,511.086,1023.063Zm0-5.139a1.764,1.764,0,0,0-.731.16,1.985,1.985,0,0,0-.964,2.553,1.815,1.815,0,0,0,2.426,1.014,1.889,1.889,0,0,0,.984-1.067,2.024,2.024,0,0,0-.021-1.486h0a1.88,1.88,0,0,0-1.013-1.036A1.766,1.766,0,0,0,511.081,1017.924Z" transform="translate(-508.046 -1016.671)"/></g><g transform="translate(9.262 30.408)"><path class="d" d="M549.191,564.815a3.091,3.091,0,1,1,2.933-3.087A3.017,3.017,0,0,1,549.191,564.815Zm0-5.426a2.342,2.342,0,1,0,2.222,2.339A2.285,2.285,0,0,0,549.191,559.39Z" transform="translate(-546.258 -558.641)"/></g></g><path class="t" d="M512.26,228.969l-41.3,132.487,143,.411L576.777,228.762s-12.353-5.865-32.318-5.865C523.937,222.9,512.26,228.969,512.26,228.969Z" transform="translate(-470.955 -222.897)"/></g></g></svg>