<svg xmlns="http://www.w3.org/2000/svg" xmlns:xlink="http://www.w3.org/1999/xlink" width="20" height="20" viewBox="0 0 20 20"><defs><style>.a{fill:#fff;}.b{clip-path:url(#a);}.c{fill:#313131;}</style><clipPath id="a"><rect class="a" width="20" height="20"/></clipPath></defs><g class="b"><g transform="translate(0 2.8)"><path class="c" d="M45.117,30.324c.382-.355.934-.024.933.56,0,0-.02,8.118-.027,10.824a.778.778,0,0,1-.7.84l-3.75-.014c-3.709-.013-11.127-.04-14.835-.055a.778.778,0,0,1-.692-.843c.006-2.672.025-10.689.025-10.689,0-.584.555-.911.935-.553l3.79,3.575,2.525,2.38L35.1,38.022a1.291,1.291,0,0,0,.689.35,1.253,1.253,0,0,0,1.059-.344Z" transform="translate(-26.05 -28.497)"/><path class="c" d="M27.569,28.5H44.53c.389,0,.56.593.257.887L37.2,36.748a1.6,1.6,0,0,1-2.3,0l-7.585-7.364c-.3-.294-.132-.887.257-.887" transform="translate(-26.05 -28.497)"/></g></g></svg>