<svg xmlns="http://www.w3.org/2000/svg" width="22" height="13.985" viewBox="0 0 22 13.985"><defs><style>.a{fill:#95989a;}</style></defs><g transform="translate(0 0)"><g transform="translate(7.427 3.419)"><g transform="translate(0 0)"><path class="a" d="M159.989,156.416a3.573,3.573,0,1,0,3.573,3.573A3.576,3.576,0,0,0,159.989,156.416Zm-.271,2.514a.82.82,0,0,0-.813.813h-1.183a2.02,2.02,0,0,1,2-2Z" transform="translate(-156.416 -156.416)"/></g></g><g transform="translate(0 0)"><path class="a" d="M21.744,88.445c-1.2-1.471-5.469-6.269-10.744-6.269S1.453,86.974.256,88.445a1.149,1.149,0,0,0,0,1.447c1.2,1.471,5.469,6.269,10.744,6.269s9.547-4.8,10.744-6.269A1.149,1.149,0,0,0,21.744,88.445ZM11,94.232a5.064,5.064,0,1,1,5.128-5.064A5.1,5.1,0,0,1,11,94.232Z" transform="translate(0 -82.176)"/></g></g></svg>