<svg xmlns="http://www.w3.org/2000/svg" width="16" height="16" viewBox="0 0 16 16"><defs><style>.a{fill:none;}.b{fill:#0079c2;}</style></defs><rect class="a" width="16" height="16"/><path class="b" d="M13.678,6.114h0L7.957.385a1.3,1.3,0,0,0-1.827,0L.414,6.114h0a1.29,1.29,0,0,0,.855,2.2h.269v4.216a1.518,1.518,0,0,0,1.5,1.548H5.287A.416.416,0,0,0,5.7,13.66V10.335a.686.686,0,0,1,.685-.692H7.711a.686.686,0,0,1,.685.692v3.3a.416.416,0,0,0,.4.44h2.237a1.518,1.518,0,0,0,1.511-1.513V8.324h.211a1.282,1.282,0,0,0,.914-.381A1.3,1.3,0,0,0,13.678,6.114Z" transform="translate(0.962 0.99)"/></svg>