<svg xmlns="http://www.w3.org/2000/svg" width="24" height="24" viewBox="0 0 24 24"><defs><style>.a{fill:none;}.b{fill:#313131;}</style></defs><g transform="translate(20049 16832)"><rect class="a" width="24" height="24" transform="translate(-20049 -16832)"/><g transform="translate(-20048.5 -16832)"><path class="b" d="M12,7h0A2.476,2.476,0,0,1,9.5,4.5h0A2.476,2.476,0,0,1,12,2h0a2.476,2.476,0,0,1,2.5,2.5h0A2.476,2.476,0,0,1,12,7Zm2.5,5h0A2.476,2.476,0,0,0,12,9.5h0A2.476,2.476,0,0,0,9.5,12h0A2.476,2.476,0,0,0,12,14.5h0A2.476,2.476,0,0,0,14.5,12Zm0,7.5h0A2.476,2.476,0,0,0,12,17h0a2.476,2.476,0,0,0-2.5,2.5h0A2.476,2.476,0,0,0,12,22h0A2.476,2.476,0,0,0,14.5,19.5Z"/></g></g></svg>