<svg xmlns="http://www.w3.org/2000/svg" width="16" height="16" viewBox="0 0 16 16"><defs><style>.a{fill:none;}.b{fill:#95989a;opacity:0.4;}</style></defs><rect class="a" width="16" height="16"/><path class="b" d="M13.037,12.1,10.28,9.063A6,6,0,0,0,11.17,5.88,5.736,5.736,0,0,0,5.585,0,5.736,5.736,0,0,0,0,5.88a5.748,5.748,0,0,0,5.585,5.88A5.393,5.393,0,0,0,8.8,10.692l2.686,2.959A1.031,1.031,0,0,0,13,13.688,1.167,1.167,0,0,0,13.037,12.1ZM5.585,9.644A3.693,3.693,0,0,1,1.992,5.861,3.681,3.681,0,0,1,5.585,2.079,3.681,3.681,0,0,1,9.178,5.861,3.693,3.693,0,0,1,5.585,9.644Z" transform="translate(1.332 1)"/></svg>