<svg xmlns="http://www.w3.org/2000/svg" width="16" height="16" viewBox="0 0 16 16"><defs><style>.a{fill:none;}.b{fill:#95989a;}</style></defs><rect class="a" width="16" height="16"/><g transform="translate(2.135 0.969)"><path class="b" d="M90.418,6.773a3.277,3.277,0,0,0,2.395-.992A3.277,3.277,0,0,0,93.8,3.387,3.277,3.277,0,0,0,92.813.992a3.386,3.386,0,0,0-4.789,0,3.277,3.277,0,0,0-.992,2.394,3.277,3.277,0,0,0,.992,2.395A3.278,3.278,0,0,0,90.418,6.773Zm-1.812-5.2a2.562,2.562,0,0,1,3.624,0,2.448,2.448,0,0,1,.751,1.812A2.448,2.448,0,0,1,92.23,5.2a2.561,2.561,0,0,1-3.624,0,2.448,2.448,0,0,1-.751-1.812,2.448,2.448,0,0,1,.751-1.812Zm0,0" transform="translate(-84.642 0)"/><path class="b" d="M11.7,251.336a8.364,8.364,0,0,0-.114-.888,7,7,0,0,0-.219-.893,4.412,4.412,0,0,0-.367-.833,3.141,3.141,0,0,0-.554-.722,2.441,2.441,0,0,0-.8-.5,2.749,2.749,0,0,0-1.015-.184,1.031,1.031,0,0,0-.55.233c-.165.108-.358.232-.573.37a3.286,3.286,0,0,1-.742.327,2.881,2.881,0,0,1-1.815,0,3.276,3.276,0,0,1-.741-.327c-.213-.136-.406-.261-.574-.37a1.03,1.03,0,0,0-.55-.233,2.746,2.746,0,0,0-1.015.184,2.439,2.439,0,0,0-.8.5,3.141,3.141,0,0,0-.554.722,4.421,4.421,0,0,0-.367.833,7.018,7.018,0,0,0-.218.893,8.309,8.309,0,0,0-.114.889c-.019.268-.028.548-.028.83a2.335,2.335,0,0,0,.693,1.766,2.5,2.5,0,0,0,1.787.652H9.25a2.5,2.5,0,0,0,1.787-.652,2.334,2.334,0,0,0,.694-1.766c0-.283-.01-.563-.028-.83Zm-1.233,2a1.681,1.681,0,0,1-1.219.425H2.48a1.681,1.681,0,0,1-1.219-.425,1.525,1.525,0,0,1-.438-1.169c0-.263.009-.524.026-.773a7.493,7.493,0,0,1,.1-.8,6.188,6.188,0,0,1,.192-.787,3.6,3.6,0,0,1,.3-.677,2.328,2.328,0,0,1,.407-.533,1.62,1.62,0,0,1,.529-.329,1.9,1.9,0,0,1,.649-.125c.029.015.08.045.163.1.169.11.365.236.58.374a4.082,4.082,0,0,0,.931.416,3.7,3.7,0,0,0,2.322,0,4.087,4.087,0,0,0,.932-.416c.221-.141.411-.263.58-.374.083-.054.135-.084.163-.1a1.9,1.9,0,0,1,.649.125,1.622,1.622,0,0,1,.529.329,2.322,2.322,0,0,1,.407.533,3.587,3.587,0,0,1,.3.677,6.173,6.173,0,0,1,.192.787,7.557,7.557,0,0,1,.1.8h0c.017.249.026.509.026.773a1.524,1.524,0,0,1-.438,1.169Zm0,0" transform="translate(0 -240.525)"/></g></svg>