<svg xmlns="http://www.w3.org/2000/svg" xmlns:xlink="http://www.w3.org/1999/xlink" width="16" height="16" viewBox="0 0 16 16"><defs><style>.a{fill:#fff;stroke:#707070;}.b{clip-path:url(#a);}.c{fill:#95989a;}</style><clipPath id="a"><rect class="a" width="16" height="16"/></clipPath></defs><g class="b" transform="translate(0)"><g transform="translate(1.28 1.28)"><g transform="translate(2.667)"><path class="c" d="M101.667,2H95a2.006,2.006,0,0,0-2,2V6.667h1.333V4A.669.669,0,0,1,95,3.333h6.667a.669.669,0,0,1,.667.667v9.334a.669.669,0,0,1-.667.667H95a.669.669,0,0,1-.667-.667V10.667H93v2.667a2.006,2.006,0,0,0,2,2h6.667a2.006,2.006,0,0,0,2-2V4A2.006,2.006,0,0,0,101.667,2Z" transform="translate(-93 -2)"/></g><path class="c" d="M98.841,11.227l-3.327,1.92a.67.67,0,0,1-1-.58V11.354H89.667a.667.667,0,1,1,0-1.333h4.847V8.727a.665.665,0,0,1,1-.573l3.327,1.92A.664.664,0,0,1,98.841,11.227Z" transform="translate(-89 -4.02)"/></g></g></svg>