<svg xmlns="http://www.w3.org/2000/svg" width="16" height="16" viewBox="0 0 16 16"><defs><style>.a{fill:none;}.b{fill:#95989a;}</style></defs><g transform="translate(20818 16797)"><rect class="a" width="16" height="16" transform="translate(-20818 -16797)"/><g transform="translate(-20907.4 -16844.1)"><g transform="translate(93.99 51.93)"><path class="b" d="M169.26,181h-5.771a.289.289,0,0,0,0,.577h5.771a.289.289,0,0,0,0-.577Z" transform="translate(-163.2 -181)"/><path class="b" d="M169.26,238h-5.771a.289.289,0,0,0,0,.577h5.771a.289.289,0,0,0,0-.577Z" transform="translate(-163.2 -235.944)"/><g transform="translate(0 4.148)"><path class="b" d="M167.914,296.289a.289.289,0,0,0-.289-.289h-4.137a.289.289,0,0,0,0,.577h4.137A.287.287,0,0,0,167.914,296.289Z" transform="translate(-163.2 -296)"/></g></g><g transform="translate(91.4 47.1)"><g transform="translate(0 0)"><path class="b" d="M300.118,324.8a2.918,2.918,0,1,0,2.918,2.918A2.917,2.917,0,0,0,300.118,324.8Zm0,5.421a2.5,2.5,0,1,1,2.5-2.5A2.5,2.5,0,0,1,300.118,330.221Z" transform="translate(-289.777 -314.783)"/><path class="a" d="M336.636,72.4H338l-2.1-2.1v1.367A.737.737,0,0,0,336.636,72.4Z" transform="translate(-327.081 -69.463)"/><path class="a" d="M114.065,63.64a1.23,1.23,0,0,1-1.226-1.226V60.7h-7.1a.737.737,0,0,0-.736.736V73.682a.737.737,0,0,0,.736.736h6.958a2.5,2.5,0,0,1,3.084-3.593V63.64Z" transform="translate(-104.509 -60.209)"/><path class="b" d="M92.626,61.3a.737.737,0,0,1-.736-.736V48.326a.737.737,0,0,1,.736-.736h7.1V49.3a1.23,1.23,0,0,0,1.226,1.226h1.713v7.185a2.467,2.467,0,0,1,.491.263V50.285a.243.243,0,0,0-.072-.173l-2.94-2.94a.243.243,0,0,0-.173-.072H92.626A1.23,1.23,0,0,0,91.4,48.326V60.572A1.23,1.23,0,0,0,92.626,61.8H99.96a2.655,2.655,0,0,1-.379-.491H92.626Zm7.593-13.368,2.1,2.1h-1.367a.737.737,0,0,1-.736-.736Z" transform="translate(-91.4 -47.1)"/></g><path class="b" d="M356.361,440.4h-1.252a.209.209,0,0,0,0,.418h1.252a.209.209,0,0,0,0-.418Z" transform="translate(-345.395 -426.213)"/><path class="b" d="M351.093,360.947a.208.208,0,0,0-.292-.043h0l-.5.375v-1.67a.209.209,0,0,0-.418,0v1.67l-.5-.375a.208.208,0,0,0-.253.332h0l.833.624a.211.211,0,0,0,.249,0l.833-.624a.2.2,0,0,0,.05-.289Z" transform="translate(-339.752 -348.135)"/></g></g></g></svg>