<svg xmlns="http://www.w3.org/2000/svg" width="16" height="16" viewBox="0 0 16 16"><defs><style>.a{fill:none;}.b{fill:#95989a;}</style></defs><g transform="translate(20659 16309)"><rect class="a" width="16" height="16" transform="translate(-20659 -16309)"/><g transform="translate(-20658 -16306.488)"><g transform="translate(0 0)"><path class="b" d="M12.849,64H1.168A1.169,1.169,0,0,0,0,65.168v8.177a1.169,1.169,0,0,0,1.168,1.168H12.849a1.169,1.169,0,0,0,1.168-1.168V65.168A1.169,1.169,0,0,0,12.849,64Zm-11.681.584H12.849a.55.55,0,0,1,.09.018L7.319,69.166a.624.624,0,0,1-.6.015L1.078,64.6A.547.547,0,0,1,1.168,64.584Zm12.265,8.761a.585.585,0,0,1-.584.584H1.168a.585.585,0,0,1-.584-.584V65.168a.571.571,0,0,1,.037-.184l5.755,4.669a1.157,1.157,0,0,0,1.243.013.27.27,0,0,0,.048-.032L13.4,64.984a.57.57,0,0,1,.037.184v8.177Z" transform="translate(0 -64)"/></g></g></g></svg>