<svg xmlns="http://www.w3.org/2000/svg" width="16" height="16" viewBox="0 0 16 16"><defs><style>.a{fill:none;}.b{fill:#95989a;}</style></defs><g transform="translate(20460 16578)"><rect class="a" width="16" height="16" transform="translate(-20460 -16578)"/><g transform="translate(-20468 -16586)"><path class="b" d="M22.711,12.656H20.578V9.3a.3.3,0,0,0-.3-.3H9.3a.3.3,0,0,0-.3.3V21.492a1.525,1.525,0,0,0,1.523,1.523H21.492a1.525,1.525,0,0,0,1.523-1.523V12.961A.3.3,0,0,0,22.711,12.656Zm-12.188,9.75a.915.915,0,0,1-.914-.914V9.609H19.969V21.492a1.517,1.517,0,0,0,.305.914Zm11.883-.914a.914.914,0,0,1-1.828,0V13.266h1.828Z"/><path class="b" d="M23.4,17H17.3a.3.3,0,0,0-.3.3v2.438a.3.3,0,0,0,.3.3H23.4a.3.3,0,0,0,.3-.3V17.3A.3.3,0,0,0,23.4,17Zm-.3,2.438H17.609V17.609h5.484Z" transform="translate(-5.563 -5.563)"/><path class="b" d="M23.4,33H17.3a.3.3,0,0,0,0,.609H23.4a.3.3,0,1,0,0-.609Z" transform="translate(-5.563 -16.688)"/><path class="b" d="M23.4,39H17.3a.3.3,0,0,0,0,.609H23.4a.3.3,0,1,0,0-.609Z" transform="translate(-5.563 -20.859)"/><path class="b" d="M23.4,45H17.3a.3.3,0,0,0,0,.609H23.4a.3.3,0,1,0,0-.609Z" transform="translate(-5.563 -25.031)"/></g></g></svg>