<svg xmlns="http://www.w3.org/2000/svg" width="16" height="16" viewBox="0 0 16 16"><defs><style>.a{fill:none;}.b{fill:#95989a;}</style></defs><g transform="translate(-1138 -80)"><rect class="a" width="16" height="16" transform="translate(1138 80)"/><g transform="translate(1137.301 80.401)"><path class="b" d="M12.974,18.5H4.425A1.427,1.427,0,0,1,3,17.074V10.425A1.427,1.427,0,0,1,4.425,9h8.549A1.427,1.427,0,0,1,14.4,10.425v6.649A1.427,1.427,0,0,1,12.974,18.5ZM4.425,9.95a.476.476,0,0,0-.475.475v6.649a.476.476,0,0,0,.475.475h8.549a.476.476,0,0,0,.475-.475V10.425a.476.476,0,0,0-.475-.475Z" transform="translate(0 -3.301)"/><path class="b" d="M13.124,6.649a.475.475,0,0,1-.475-.475V3.8a2.85,2.85,0,1,0-5.7,0V6.174a.475.475,0,1,1-.95,0V3.8a3.8,3.8,0,1,1,7.6,0V6.174A.475.475,0,0,1,13.124,6.649Z" transform="translate(-1.1)"/><path class="b" d="M11.266,15.533a1.266,1.266,0,1,1,1.266-1.266A1.268,1.268,0,0,1,11.266,15.533Zm0-1.583a.317.317,0,1,0,.317.317A.317.317,0,0,0,11.266,13.95Z" transform="translate(-2.567 -4.768)"/><path class="b" d="M11.725,18.441a.475.475,0,0,1-.475-.475V16.225a.475.475,0,1,1,.95,0v1.741A.475.475,0,0,1,11.725,18.441Z" transform="translate(-3.026 -5.776)"/></g></g></svg>