<svg xmlns="http://www.w3.org/2000/svg" xmlns:xlink="http://www.w3.org/1999/xlink" width="58" height="58" viewBox="0 0 58 58"><defs><style>.a{fill:#0079c2;}.b{fill:#fff;}.c{filter:url(#a);}</style><filter id="a" x="0" y="0" width="58" height="58" filterUnits="userSpaceOnUse"><feOffset dy="3" input="SourceAlpha"/><feGaussianBlur stdDeviation="3" result="b"/><feFlood flood-opacity="0.161"/><feComposite operator="in" in2="b"/><feComposite in="SourceGraphic"/></filter></defs><g transform="translate(-1294.416 -292)"><circle class="a" cx="17" cy="17" r="17" transform="translate(1307 301)"/><g class="c" transform="matrix(1, 0, 0, 1, 1294.42, 292)"><path class="b" d="M20,40A20,20,0,1,1,40,20,20.027,20.027,0,0,1,20,40ZM33,18.657a1.664,1.664,0,0,0,0-2.332L30.318,13.64a1.664,1.664,0,0,0-2.332,0L20,21.7,12.014,13.71a1.664,1.664,0,0,0-2.332,0L7,16.4a1.578,1.578,0,0,0,0,2.261l11.8,11.8a1.664,1.664,0,0,0,2.332,0Z" transform="translate(9 46) rotate(-90)"/></g></g></svg>