<svg xmlns="http://www.w3.org/2000/svg" width="20" height="20" viewBox="0 0 20 20"><defs><style>.a{fill:none;}.b{fill:#313131;}</style></defs><rect class="a" width="20" height="20"/><g transform="translate(0.1 0.05)"><path class="b" d="M22,12a1.561,1.561,0,0,1-1.5,1.6H7.8l5.8,5.7a1.694,1.694,0,0,1,0,2.3,1.845,1.845,0,0,1-1.2.5,2.078,2.078,0,0,1-1.2-.5L3.9,14.3,2.4,12.8a1.087,1.087,0,0,1,0-1.5L3.9,9.8l7.3-7.2a1.693,1.693,0,0,1,2.3,0,1.231,1.231,0,0,1,.5,1,1.606,1.606,0,0,1-.5,1.1L7.7,10.4H20.5A1.561,1.561,0,0,1,22,12Z" transform="translate(-2.1 -2.15)"/></g></svg>