<svg xmlns="http://www.w3.org/2000/svg" width="16" height="16" viewBox="0 0 16 16"><defs><style>.a{fill:none;}.b{fill:#0079c2;}</style></defs><g transform="translate(20433 13686)"><rect class="a" width="16" height="16" transform="translate(-20433 -13686)"/><g transform="translate(-20518.199 -13737.1)"><g transform="translate(96.182 51.475)"><path class="a" d="M409.6,407.5v.375a.282.282,0,0,0,.014-.357A.064.064,0,0,0,409.6,407.5Z" transform="translate(-406.957 -395.023)"/><path class="a" d="M343.287,459.6a.849.849,0,0,1-.317.069H341.4a.276.276,0,0,0-.1.213.282.282,0,0,0,.281.281h1.691a.281.281,0,0,0,.014-.563Z" transform="translate(-341.12 -445.245)"/><path class="b" d="M337.093,63.768h1.475L336.3,61.5v1.475A.793.793,0,0,0,337.093,63.768Z" transform="translate(-336.3 -61.5)"/></g><path class="b" d="M293.264,330.4a2.964,2.964,0,1,0,2.964,2.964A2.964,2.964,0,0,0,293.264,330.4Zm.743,4.944h-1.482a.249.249,0,0,1,0-.5h1.482a.249.249,0,1,1,0,.5Zm.4-1.778-.988.743a.249.249,0,0,1-.3,0l-.992-.743a.247.247,0,1,1,.3-.4h0l.591.444v-1.976a.249.249,0,0,1,.5,0v1.976l.591-.444a.245.245,0,0,1,.346.05.247.247,0,0,1-.047.346Z" transform="translate(-195.776 -269.229)"/><g transform="translate(87.2 51.1)"><path class="b" d="M96.976,54.273a1.32,1.32,0,0,1-1.32-1.32V51.1H87.993a.793.793,0,0,0-.793.793V65.106a.793.793,0,0,0,.793.793H94.6a3.382,3.382,0,0,1,2.888-5.142,3.315,3.315,0,0,1,1.338.278V54.273ZM94.441,60.45H90.3a.288.288,0,0,1,0-.577h4.136a.288.288,0,1,1,0,.577Zm1.633-2.091H90.3a.288.288,0,1,1,0-.577h5.77a.288.288,0,1,1,0,.577Zm0-2.055H90.3a.288.288,0,0,1,0-.577h5.77a.288.288,0,1,1,0,.577Z" transform="translate(-87.2 -51.1)"/></g></g></g></svg>