<svg xmlns="http://www.w3.org/2000/svg" width="16" height="16" viewBox="0 0 16 16"><defs><style>.a{fill:none;}.b{fill:#95989a;}</style></defs><g transform="translate(20409 16493.277)"><rect class="a" width="16" height="16" transform="translate(-20409 -16493.277)"/><g transform="translate(-20409 -16493.277)"><g transform="translate(0 0)"><rect class="a" width="16" height="16"/><path class="b" d="M13.555,6.077h0L7.891.421a1.29,1.29,0,0,0-1.811,0L.422,6.077h0a1.28,1.28,0,0,0,0,1.8,1.266,1.266,0,0,0,.847.371H1.53v4.173a1.5,1.5,0,0,0,1.5,1.507H5.244a.406.406,0,0,0,.406-.406v-3.28a.679.679,0,0,1,.679-.678H7.641a.679.679,0,0,1,.679.678v3.263a.406.406,0,0,0,.406.406h2.217a1.5,1.5,0,0,0,1.5-1.49V8.257h.209a1.275,1.275,0,0,0,.905-2.179Zm-.58,1.235a.47.47,0,0,1-.331.133h-.609a.406.406,0,0,0-.406.406v4.573a.684.684,0,0,1-.685.678H9.133V10.245a1.5,1.5,0,0,0-1.492-1.5H6.33a1.5,1.5,0,0,0-1.492,1.5V13.1H3.027a.684.684,0,0,1-.685-.678V7.851a.406.406,0,0,0-.406-.406H1.315A.482.482,0,0,1,.99,7.312a.469.469,0,0,1,0-.661h0L6.655.995a.476.476,0,0,1,.662,0l5.658,5.657h0a.463.463,0,0,1,.006.661Z" transform="translate(1.093 1.094)"/></g></g></g></svg>