<svg xmlns="http://www.w3.org/2000/svg" width="16" height="16" viewBox="0 0 16 16"><defs><style>.a{fill:none;}.b{fill:#0079c2;}</style></defs><g transform="translate(20763 8975)"><rect class="a" width="16" height="16" transform="translate(-20763 -8975)"/><g transform="translate(-20762 -8972)"><g transform="translate(0 0)"><path class="b" d="M7.017,64.853c1.925,1.63,5.3,4.5,6.3,5.392a.586.586,0,0,0,.848,0c.994-.9,4.371-3.763,6.3-5.394a.292.292,0,0,0,.041-.4,1.16,1.16,0,0,0-.917-.45H7.893a1.16,1.16,0,0,0-.917.45A.292.292,0,0,0,7.017,64.853Z" transform="translate(-6.724 -64)"/><path class="b" d="M13.856,126.439a.291.291,0,0,0-.312.042c-2.135,1.81-4.859,4.129-5.716,4.9a1.183,1.183,0,0,1-1.631,0c-.914-.823-3.973-3.424-5.716-4.9A.292.292,0,0,0,0,126.7v7.348a1.17,1.17,0,0,0,1.169,1.169H12.857a1.17,1.17,0,0,0,1.169-1.169V126.7A.292.292,0,0,0,13.856,126.439Z" transform="translate(0 -124.702)"/></g></g></g></svg>